<svg width="73" height="73" viewBox="0 0 73 73" fill="none" xmlns="http://www.w3.org/2000/svg">
<circle cx="36.5" cy="36.5" r="36.5" fill="#00A884"/>
<path d="M49.5095 22.8097C45.9669 19.2587 41.2492 17.3057 36.2356 17.3057C25.8871 17.3057 17.4662 25.7265 17.4662 36.0751C17.4662 39.3809 18.3286 42.6106 19.9688 45.4598L17.3055 55.1827L27.2567 52.5702C29.996 54.0667 33.082 54.8529 36.2271 54.8529H36.2356C46.5757 54.8529 55.1826 46.4321 55.1826 36.0835C55.1826 31.0699 53.052 26.3606 49.5095 22.8097ZM36.2356 51.6909C33.4286 51.6909 30.6809 50.9384 28.2882 49.518L27.7217 49.1798L21.8203 50.7271L23.3929 44.9694L23.0209 44.3776C21.4568 41.8919 20.6367 39.0258 20.6367 36.0751C20.6367 27.4767 27.6372 20.4762 36.244 20.4762C40.4122 20.4762 44.3267 22.0995 47.269 25.0502C50.2112 28.0008 52.0205 31.9154 52.012 36.0835C52.012 44.6904 44.834 51.6909 36.2356 51.6909ZM44.7917 40.0065C44.3267 39.7698 42.0186 38.6368 41.5874 38.4847C41.1562 38.324 40.8434 38.2479 40.5306 38.7214C40.2178 39.1949 39.3216 40.2432 39.0426 40.5645C38.772 40.8773 38.493 40.9196 38.028 40.6829C35.2718 39.3048 33.4625 38.2226 31.6447 35.1028C31.1628 34.2742 32.1266 34.3334 33.0228 32.541C33.175 32.2282 33.0989 31.9576 32.9805 31.7209C32.8622 31.4842 31.9237 29.1761 31.5348 28.2376C31.1543 27.3245 30.7654 27.4513 30.478 27.4344C30.2074 27.4175 29.8946 27.4175 29.5818 27.4175C29.2689 27.4175 28.7616 27.5358 28.3305 28.0008C27.8993 28.4743 26.6902 29.6072 26.6902 31.9154C26.6902 34.2235 28.3727 36.4555 28.601 36.7684C28.8377 37.0812 31.9068 41.8158 36.6161 43.8534C39.5921 45.1385 40.7589 45.2484 42.2469 45.0286C43.1515 44.8933 45.02 43.8957 45.4089 42.7966C45.7978 41.6974 45.7979 40.759 45.6795 40.5645C45.5696 40.3532 45.2568 40.2348 44.7917 40.0065Z" fill="white"/>
</svg>
